#define max_width 16
#define max_height 16
static unsigned char max_bits[] = {
 0x00, 0x00, 0x00, 0x00, 0x00, 0x00, 0x00, 0x00, 0x00, 0x00, 0x00, 0x00,
 0x80, 0x01, 0xC0, 0x03, 0xE0, 0x07, 0x70, 0x0E, 0x38, 0x1C, 0x00, 0x00,
 0x00, 0x00, 0x00, 0x00, 0x00, 0x00, 0x00, 0x00 };
