#define max_width 16
#define max_height 16
static unsigned char max_bits[] = {
 0x80, 0x01, 0xC0, 0x03, 0xE0, 0x07, 0xF0, 0x0F, 0x78, 0x1E, 0x3C, 0x3C,
 0x1C, 0x38, 0x0C, 0x30, 0x04, 0x20, 0x00, 0x00, 0x00, 0x00, 0x00, 0x00,
 0x00, 0x00, 0x00, 0x00, 0x00, 0x00, 0x00, 0x00 };
