#define max_width 12
#define max_height 12
static unsigned char max_bits[] = {
 0x00, 0x00, 0x00, 0x00, 0x00, 0x00, 0x00, 0x00, 0x60, 0x00, 0xF0, 0x00,
 0xF8, 0x01, 0x9C, 0x03, 0x0E, 0x07, 0x00, 0x00, 0x00, 0x00, 0x00, 0x00 };
